<mxfile host="app.diagrams.net" agent="Mozilla/5.0 (Windows NT 10.0; Win64; x64) AppleWebKit/537.36 (KHTML, like Gecko) Chrome/138.0.0.0 Safari/537.36" version="28.0.4">
  <diagram name="P치gina-1" id="274puxoRGz_srVd9dHza">
    <mxGraphModel grid="1" page="1" gridSize="10" guides="1" tooltips="1" connect="1" arrows="1" fold="1" pageScale="1" pageWidth="827" pageHeight="1169" math="0" shadow="0">
      <root>
        <mxCell id="0" />
        <mxCell id="1" parent="0" />
        <mxCell id="zqcGsqoQzWUNd8DgJpxQ-6" style="rounded=0;orthogonalLoop=1;jettySize=auto;html=1;entryX=0;entryY=0.5;entryDx=0;entryDy=0;exitX=1;exitY=0.75;exitDx=0;exitDy=0;" edge="1" parent="1" source="zqcGsqoQzWUNd8DgJpxQ-1" target="zqcGsqoQzWUNd8DgJpxQ-2">
          <mxGeometry relative="1" as="geometry" />
        </mxCell>
        <mxCell id="zqcGsqoQzWUNd8DgJpxQ-12" value="&lt;div style=&quot;&quot;&gt;&lt;br&gt;&lt;/div&gt;" style="edgeLabel;html=1;align=center;verticalAlign=middle;resizable=0;points=[];" vertex="1" connectable="0" parent="zqcGsqoQzWUNd8DgJpxQ-6">
          <mxGeometry x="-0.2938" y="-1" relative="1" as="geometry">
            <mxPoint as="offset" />
          </mxGeometry>
        </mxCell>
        <mxCell id="zqcGsqoQzWUNd8DgJpxQ-15" value="1. Seleccionar Evento" style="edgeLabel;html=1;align=center;verticalAlign=middle;resizable=0;points=[];" vertex="1" connectable="0" parent="zqcGsqoQzWUNd8DgJpxQ-6">
          <mxGeometry x="-0.1838" y="-1" relative="1" as="geometry">
            <mxPoint as="offset" />
          </mxGeometry>
        </mxCell>
        <mxCell id="zqcGsqoQzWUNd8DgJpxQ-1" value=":Administrador" style="html=1;whiteSpace=wrap;" vertex="1" parent="1">
          <mxGeometry x="180" y="70" width="110" height="50" as="geometry" />
        </mxCell>
        <mxCell id="zqcGsqoQzWUNd8DgJpxQ-7" style="rounded=0;orthogonalLoop=1;jettySize=auto;html=1;entryX=1;entryY=0.5;entryDx=0;entryDy=0;" edge="1" parent="1" source="zqcGsqoQzWUNd8DgJpxQ-2" target="zqcGsqoQzWUNd8DgJpxQ-3">
          <mxGeometry relative="1" as="geometry" />
        </mxCell>
        <mxCell id="zqcGsqoQzWUNd8DgJpxQ-14" value="2. Enviar Datos Editados" style="edgeLabel;html=1;align=center;verticalAlign=middle;resizable=0;points=[];" vertex="1" connectable="0" parent="zqcGsqoQzWUNd8DgJpxQ-7">
          <mxGeometry x="-0.0741" y="-2" relative="1" as="geometry">
            <mxPoint as="offset" />
          </mxGeometry>
        </mxCell>
        <mxCell id="zqcGsqoQzWUNd8DgJpxQ-2" value=":UI_Eventos" style="html=1;whiteSpace=wrap;" vertex="1" parent="1">
          <mxGeometry x="520" y="130" width="110" height="50" as="geometry" />
        </mxCell>
        <mxCell id="zqcGsqoQzWUNd8DgJpxQ-8" style="rounded=0;orthogonalLoop=1;jettySize=auto;html=1;entryX=0;entryY=0.5;entryDx=0;entryDy=0;exitX=1;exitY=0.25;exitDx=0;exitDy=0;edgeStyle=orthogonalEdgeStyle;" edge="1" parent="1" source="zqcGsqoQzWUNd8DgJpxQ-3" target="zqcGsqoQzWUNd8DgJpxQ-3">
          <mxGeometry relative="1" as="geometry">
            <mxPoint x="-80" y="239.99877192982456" as="sourcePoint" />
            <mxPoint x="150" y="296.49" as="targetPoint" />
            <Array as="points">
              <mxPoint x="310" y="222" />
              <mxPoint x="310" y="150" />
              <mxPoint x="160" y="150" />
              <mxPoint x="160" y="235" />
            </Array>
          </mxGeometry>
        </mxCell>
        <mxCell id="zqcGsqoQzWUNd8DgJpxQ-16" value="3. Validar Cambios" style="edgeLabel;html=1;align=center;verticalAlign=middle;resizable=0;points=[];" vertex="1" connectable="0" parent="zqcGsqoQzWUNd8DgJpxQ-8">
          <mxGeometry x="-0.0349" y="-1" relative="1" as="geometry">
            <mxPoint x="-74" y="31" as="offset" />
          </mxGeometry>
        </mxCell>
        <mxCell id="zqcGsqoQzWUNd8DgJpxQ-21" style="edgeStyle=orthogonalEdgeStyle;rounded=0;orthogonalLoop=1;jettySize=auto;html=1;entryX=0.5;entryY=0;entryDx=0;entryDy=0;exitX=0.25;exitY=1;exitDx=0;exitDy=0;" edge="1" parent="1" source="zqcGsqoQzWUNd8DgJpxQ-3" target="zqcGsqoQzWUNd8DgJpxQ-5">
          <mxGeometry relative="1" as="geometry">
            <Array as="points">
              <mxPoint x="205" y="260" />
            </Array>
          </mxGeometry>
        </mxCell>
        <mxCell id="zqcGsqoQzWUNd8DgJpxQ-22" value="6. Notificar Cliente" style="edgeLabel;html=1;align=center;verticalAlign=middle;resizable=0;points=[];" vertex="1" connectable="0" parent="zqcGsqoQzWUNd8DgJpxQ-21">
          <mxGeometry x="-0.0747" relative="1" as="geometry">
            <mxPoint as="offset" />
          </mxGeometry>
        </mxCell>
        <mxCell id="zqcGsqoQzWUNd8DgJpxQ-3" value=":SistemaEventos" style="html=1;whiteSpace=wrap;" vertex="1" parent="1">
          <mxGeometry x="180" y="210" width="110" height="50" as="geometry" />
        </mxCell>
        <mxCell id="zqcGsqoQzWUNd8DgJpxQ-9" style="rounded=0;orthogonalLoop=1;jettySize=auto;html=1;entryX=0.887;entryY=1.029;entryDx=0;entryDy=0;edgeStyle=orthogonalEdgeStyle;entryPerimeter=0;" edge="1" parent="1" source="zqcGsqoQzWUNd8DgJpxQ-4" target="zqcGsqoQzWUNd8DgJpxQ-3">
          <mxGeometry relative="1" as="geometry" />
        </mxCell>
        <mxCell id="zqcGsqoQzWUNd8DgJpxQ-20" value="5. Confirmaci칩n Edici칩n" style="edgeLabel;html=1;align=center;verticalAlign=middle;resizable=0;points=[];" vertex="1" connectable="0" parent="zqcGsqoQzWUNd8DgJpxQ-9">
          <mxGeometry x="-0.1884" y="1" relative="1" as="geometry">
            <mxPoint as="offset" />
          </mxGeometry>
        </mxCell>
        <mxCell id="zqcGsqoQzWUNd8DgJpxQ-4" value=":BD_Eventos&lt;span style=&quot;color: rgba(0, 0, 0, 0); font-family: monospace; font-size: 0px; text-align: start; text-wrap-mode: nowrap;&quot;&gt;%3CmxGraphModel%3E%3Croot%3E%3CmxCell%20id%3D%220%22%2F%3E%3CmxCell%20id%3D%221%22%20parent%3D%220%22%2F%3E%3CmxCell%20id%3D%222%22%20value%3D%22UI_Eventos%22%20style%3D%22html%3D1%3BwhiteSpace%3Dwrap%3B%22%20vertex%3D%221%22%20parent%3D%221%22%3E%3CmxGeometry%20x%3D%22520%22%20y%3D%22120%22%20width%3D%22110%22%20height%3D%2250%22%20as%3D%22geometry%22%2F%3E%3C%2FmxCell%3E%3C%2Froot%3E%3C%2FmxGraphModel%3E&lt;/span&gt;" style="html=1;whiteSpace=wrap;" vertex="1" parent="1">
          <mxGeometry x="520" y="280" width="110" height="50" as="geometry" />
        </mxCell>
        <mxCell id="zqcGsqoQzWUNd8DgJpxQ-5" value=":Notificaci칩n" style="html=1;whiteSpace=wrap;" vertex="1" parent="1">
          <mxGeometry x="150" y="370" width="110" height="50" as="geometry" />
        </mxCell>
        <mxCell id="zqcGsqoQzWUNd8DgJpxQ-17" style="rounded=0;orthogonalLoop=1;jettySize=auto;html=1;entryX=0;entryY=0.25;entryDx=0;entryDy=0;" edge="1" parent="1" source="zqcGsqoQzWUNd8DgJpxQ-3" target="zqcGsqoQzWUNd8DgJpxQ-4">
          <mxGeometry relative="1" as="geometry" />
        </mxCell>
        <mxCell id="zqcGsqoQzWUNd8DgJpxQ-19" value="4. Actualizar Evento" style="edgeLabel;html=1;align=center;verticalAlign=middle;resizable=0;points=[];" vertex="1" connectable="0" parent="zqcGsqoQzWUNd8DgJpxQ-17">
          <mxGeometry x="-0.0435" relative="1" as="geometry">
            <mxPoint y="-8" as="offset" />
          </mxGeometry>
        </mxCell>
      </root>
    </mxGraphModel>
  </diagram>
</mxfile>
